<svg xmlns="http://www.w3.org/2000/svg" viewBox="0 0 169.37 169.37" role="img" aria-label="FR" xmlns:c2pa="http://c2pa.org/manifest"><metadata><c2pa:manifest>AAAWgmp1bWIAAAAeanVtZGMycGEAEQAQgAAAqgA4m3EDYzJwYQAAABZcanVtYgAAAEdqdW1kYzJtYQARABCAAACqADibcQN1cm46YzJwYTpmODg4YTQ1Mi00NjcyLTRjN2EtODQ2Yy1iMDdlZmZjNzQ4YTgAAAADl2p1bWIAAAApanVtZGMyYXMAEQAQgAAAqgA4m3EDYzJwYS5hc3NlcnRpb25zAAAAALxqdW1iAAAARGp1bWRjYm9yABEAEIAAAKoAOJtxE2MycGEuaW5ncmVkaWVudC52MwAAAAAYYzJzaJgwetKxK154Drg0yXZtZgoAAABwY2JvcqNpZGM6Zm9ybWF0bWltYWdlL3N2Zyt4bWxqaW5zdGFuY2VJRHgseG1wOmlpZDpjMDcyNDg2NC0zZWUzLTQ5ZTgtYWQ1My05ZDVmNjk3OWViYTFscmVsYXRpb25zaGlwaHBhcmVudE9mAAAB4mp1bWIAAABBanVtZGNib3IAEQAQgAAAqgA4m3ETYzJwYS5hY3Rpb25zLnYyAAAAABhjMnNotvIsPFH4zlA2KLR9JFHnFQAAAZljYm9yomdhY3Rpb25zgqJmYWN0aW9ua2MycGEub3BlbmVkanBhcmFtZXRlcnOha2luZ3JlZGllbnRzgaJjdXJseC1zZWxmI2p1bWJmPWMycGEuYXNzZXJ0aW9ucy9jMnBhLmluZ3JlZGllbnQudjNkaGFzaFgg0n2P/Ke6OI/Yt7+YtviugjjyVNxhzyu6oQCE62pzNeekZmFjdGlvbngdY29tLmFudGhyb3BpYy5jbGF1ZGUucHJvdmlkZWRqcGFyYW1ldGVyc6F4H2NvbS5hbnRocm9waWMub3JpZ2luLWNvbmZpZGVuY2VndW5rbm93bmtkZXNjcmlwdGlvbnhmQ2xhdWRlIHByb3ZpZGVkIHRoaXMgZmlsZSBhdCB0aGUgcmVxdWVzdCBvZiBhIHVzZXIgYW5kIG1heSBoYXZlIGNyZWF0ZWQgb3IgbW9kaWZpZWQgdGhlIGZpbGUgY29udGVudHMubXNvZnR3YXJlQWdlbnShZG5hbWVmQ2xhdWRlcmFsbEFjdGlvbnNJbmNsdWRlZPUAAADIanVtYgAAAEBqdW1kY2JvcgARABCAAACqADibcRNjMnBhLmhhc2guZGF0YQAAAAAYYzJzaMZQx0fTxf6YGRNp9PsXrKAAAACAY2JvcqVjYWxnZnNoYTI1NmNwYWRNAAAAAAAAAAAAAAAAAGRoYXNoWCDDCOOpWoVuK0DhWQpwCeRVhWL08Gfz0v/KxL1aJWN0TmRuYW1lbmp1bWJmIG1hbmlmZXN0amV4Y2x1c2lvbnOBomVzdGFydBieZmxlbmd0aBkeBAAAAj5qdW1iAAAAJ2p1bWRjMmNsABEAEIAAAKoAOJtxA2MycGEuY2xhaW0udjIAAAACD2Nib3KlY2FsZ2ZzaGEyNTZpc2lnbmF0dXJleE1zZWxmI2p1bWJmPS9jMnBhL3VybjpjMnBhOmY4ODhhNDUyLTQ2NzItNGM3YS04NDZjLWIwN2VmZmM3NDhhOC9jMnBhLnNpZ25hdHVyZWppbnN0YW5jZUlEeCx4bXA6aWlkOmZmOWY1MDdiLTcwNDEtNGY4Zi05YjNjLTZjYzA2NjQ5OGIyYnJjcmVhdGVkX2Fzc2VydGlvbnODomN1cmx4LXNlbGYjanVtYmY9YzJwYS5hc3NlcnRpb25zL2MycGEuaW5ncmVkaWVudC52M2RoYXNoWCDSfY/8p7o4j9i3v5i2+K6COPJU3GHPK7qhAITranM156JjdXJseCpzZWxmI2p1bWJmPWMycGEuYXNzZXJ0aW9ucy9jMnBhLmFjdGlvbnMudjJkaGFzaFgg9kq1a24n/J8W0mCGKmzAGYFUt8BH/aVfL7t1RJl4/NqiY3VybHgpc2VsZiNqdW1iZj1jMnBhLmFzc2VydGlvbnMvYzJwYS5oYXNoLmRhdGFkaGFzaFggTOGvQd4Aii0I7dAGGdELF4K92lvTBmr/knZVQvXVrqN0Y2xhaW1fZ2VuZXJhdG9yX2luZm+jZG5hbWVvQW50aHJvcGljIEZpbGVzZ3ZlcnNpb25lMS4wLjBrc3BlY1ZlcnNpb25lMi40LjAAABA4anVtYgAAAChqdW1kYzJjcwARABCAAACqADibcQNjMnBhLnNpZ25hdHVyZQAAABAIY2JvctKEWQISogEmGCFZAgowggIGMIIBjaADAgECAhRA5aAK7sI50L64g/oGQgU9Z1UTADAKBggqhkjOPQQDAzBJMRcwFQYDVQQKEw5BbnRocm9waWMsIFBCQzEuMCwGA1UEAxMlQW50aHJvcGljIENvbnRlbnQgQ3JlZGVudGlhbHMgUm9vdCBDQTAeFw0yNjA4MDcxODQzNTZaFw0yODA4MDYxOTQzNTZaMEQxFzAVBgNVBAoTDkFudGhyb3BpYywgUEJDMSkwJwYDVQQDEyBBbnRocm9waWMgQ2xhdWRlIENvbnRlbnQgU2lnbmluZzBZMBMGByqGSM49AgEGCCqGSM49AwEHA0IABJh6CmvLUBgFFNU0vUKlOVtE6djd17L5SuwX0LemFisBM3dkd/3cyjxFA3Qo5S46fX0/ihY0VZ7mfb9KF703t5OjWDBWMA4GA1UdDwEB/wQEAwIHgDAVBgNVHSUEDjAMBgorBgEEAYPoXgIBMAwGA1UdEwEB/wQCMAAwHwYDVR0jBBgwFoAUzlHiBIFOZFsj+OPEz5o+nMHXXMIwCgYIKoZIzj0EAwMDZwAwZAIwMXMdFJ4BetLLVY7ORuE9noqbbAZOZn/aArXyTwFAZfKrPzxF2vPoJNf1+UCdg1XGAjBwX1zd9WGqYkqmL5SFqw1QySjr1zJfpJM9+1rdDwSPLMOPOjKuiXjoU/pUUeG9RwmhY3BhZFkNngAAAAAAAAAAAAAAAAAAAAAAAAAAAAAAAAAAAAAAAAAAAAAAAAAAAAAAAAAAAAAAAAAAAAAAAAAAAAAAAAAAAAAAAAAAAAAAAAAAAAAAAAAAAAAAAAAAAAAAAAAAAAAAAAAAAAAAAAAAAAAAAAAAAAAAAAAAAAAAAAAAAAAAAAAAAAAAAAAAAAAAAAAAAAAAAAAAAAAAAAAAAAAAAAAAAAAAAAAAAAAAAAAAAAAAAAAAAAAAAAAAAAAAAAAAAAAAAAAAAAAAAAAAAAAAAAAAAAAAAAAAAAAAAAAAAAAAAAAAAAAAAAAAAAAAAAAAAAAAAAAAAAAAAAAAAAAAAAAAAAAAAAAAAAAAAAAAAAAAAAAAAAAAAAAAAAAAAAAAAAAAAAAAAAAAAAAAAAAAAAAAAAAAAAAAAAAAAAAAAAAAAAAAAAAAAAAAAAAAAAAAAAAAAAAAAAAAAAAAAAAAAAAAAAAAAAAAAAAAAAAAAAAAAAAAAAAAAAAAAAAAAAAAAAAAAAAAAAAAAAAAAAAAAAAAAAAAAAAAAAAAAAAAAAAAAAAAAAAAAAAAAAAAAAAAAAAAAAAAAAAAAAAAAAAAAAAAAAAAAAAAAAAAAAAAAAAAAAAAAAAAAAAAAAAAAAAAAAAAAAAAAAAAAAAAAAAAAAAAAAAAAAAAAAAAAAAAAAAAAAAAAAAAAAAAAAAAAAAAAAAAAAAAAAAAAAAAAAAAAAAAAAAAAAAAAAAAAAAAAAAAAAAAAAAAAAAAAAAAAAAAAAAAAAAAAAAAAAAAAAAAAAAAAAAAAAAAAAAAAAAAAAAAAAAAAAAAAAAAAAAAAAAAAAAAAAAAAAAAAAAAAAAAAAAAAAAAAAAAAAAAAAAAAAAAAAAAAAAAAAAAAAAAAAAAAAAAAAAAAAAAAAAAAAAAAAAAAAAAAAAAAAAAAAAAAAAAAAAAAAAAAAAAAAAAAAAAAAAAAAAAAAAAAAAAAAAAAAAAAAAAAAAAAAAAAAAAAAAAAAAAAAAAAAAAAAAAAAAAAAAAAAAAAAAAAAAAAAAAAAAAAAAAAAAAAAAAAAAAAAAAAAAAAAAAAAAAAAAAAAAAAAAAAAAAAAAAAAAAAAAAAAAAAAAAAAAAAAAAAAAAAAAAAAAAAAAAAAAAAAAAAAAAAAAAAAAAAAAAAAAAAAAAAAAAAAAAAAAAAAAAAAAAAAAAAAAAAAAAAAAAAAAAAAAAAAAAAAAAAAAAAAAAAAAAAAAAAAAAAAAAAAAAAAAAAAAAAAAAAAAAAAAAAAAAAAAAAAAAAAAAAAAAAAAAAAAAAAAAAAAAAAAAAAAAAAAAAAAAAAAAAAAAAAAAAAAAAAAAAAAAAAAAAAAAAAAAAAAAAAAAAAAAAAAAAAAAAAAAAAAAAAAAAAAAAAAAAAAAAAAAAAAAAAAAAAAAAAAAAAAAAAAAAAAAAAAAAAAAAAAAAAAAAAAAAAAAAAAAAAAAAAAAAAAAAAAAAAAAAAAAAAAAAAAAAAAAAAAAAAAAAAAAAAAAAAAAAAAAAAAAAAAAAAAAAAAAAAAAAAAAAAAAAAAAAAAAAAAAAAAAAAAAAAAAAAAAAAAAAAAAAAAAAAAAAAAAAAAAAAAAAAAAAAAAAAAAAAAAAAAAAAAAAAAAAAAAAAAAAAAAAAAAAAAAAAAAAAAAAAAAAAAAAAAAAAAAAAAAAAAAAAAAAAAAAAAAAAAAAAAAAAAAAAAAAAAAAAAAAAAAAAAAAAAAAAAAAAAAAAAAAAAAAAAAAAAAAAAAAAAAAAAAAAAAAAAAAAAAAAAAAAAAAAAAAAAAAAAAAAAAAAAAAAAAAAAAAAAAAAAAAAAAAAAAAAAAAAAAAAAAAAAAAAAAAAAAAAAAAAAAAAAAAAAAAAAAAAAAAAAAAAAAAAAAAAAAAAAAAAAAAAAAAAAAAAAAAAAAAAAAAAAAAAAAAAAAAAAAAAAAAAAAAAAAAAAAAAAAAAAAAAAAAAAAAAAAAAAAAAAAAAAAAAAAAAAAAAAAAAAAAAAAAAAAAAAAAAAAAAAAAAAAAAAAAAAAAAAAAAAAAAAAAAAAAAAAAAAAAAAAAAAAAAAAAAAAAAAAAAAAAAAAAAAAAAAAAAAAAAAAAAAAAAAAAAAAAAAAAAAAAAAAAAAAAAAAAAAAAAAAAAAAAAAAAAAAAAAAAAAAAAAAAAAAAAAAAAAAAAAAAAAAAAAAAAAAAAAAAAAAAAAAAAAAAAAAAAAAAAAAAAAAAAAAAAAAAAAAAAAAAAAAAAAAAAAAAAAAAAAAAAAAAAAAAAAAAAAAAAAAAAAAAAAAAAAAAAAAAAAAAAAAAAAAAAAAAAAAAAAAAAAAAAAAAAAAAAAAAAAAAAAAAAAAAAAAAAAAAAAAAAAAAAAAAAAAAAAAAAAAAAAAAAAAAAAAAAAAAAAAAAAAAAAAAAAAAAAAAAAAAAAAAAAAAAAAAAAAAAAAAAAAAAAAAAAAAAAAAAAAAAAAAAAAAAAAAAAAAAAAAAAAAAAAAAAAAAAAAAAAAAAAAAAAAAAAAAAAAAAAAAAAAAAAAAAAAAAAAAAAAAAAAAAAAAAAAAAAAAAAAAAAAAAAAAAAAAAAAAAAAAAAAAAAAAAAAAAAAAAAAAAAAAAAAAAAAAAAAAAAAAAAAAAAAAAAAAAAAAAAAAAAAAAAAAAAAAAAAAAAAAAAAAAAAAAAAAAAAAAAAAAAAAAAAAAAAAAAAAAAAAAAAAAAAAAAAAAAAAAAAAAAAAAAAAAAAAAAAAAAAAAAAAAAAAAAAAAAAAAAAAAAAAAAAAAAAAAAAAAAAAAAAAAAAAAAAAAAAAAAAAAAAAAAAAAAAAAAAAAAAAAAAAAAAAAAAAAAAAAAAAAAAAAAAAAAAAAAAAAAAAAAAAAAAAAAAAAAAAAAAAAAAAAAAAAAAAAAAAAAAAAAAAAAAAAAAAAAAAAAAAAAAAAAAAAAAAAAAAAAAAAAAAAAAAAAAAAAAAAAAAAAAAAAAAAAAAAAAAAAAAAAAAAAAAAAAAAAAAAAAAAAAAAAAAAAAAAAAAAAAAAAAAAAAAAAAAAAAAAAAAAAAAAAAAAAAAAAAAAAAAAAAAAAAAAAAAAAAAAAAAAAAAAAAAAAAAAAAAAAAAAAAAAAAAAAAAAAAAAAAAAAAAAAAAAAAAAAAAAAAAAAAAAAAAAAAAAAAAAAAAAAAAAAAAAAAAAAAAAAAAAAAAAAAAAAAAAAAAAAAAAAAAAAAAAAAAAAAAAAAAAAAAAAAAAAAAAAAAAAAAAAAAAAAAAAAAAAAAAAAAAAAAAAAAAAAAAAAAAAAAAAAAAAAAAAAAAAAAAAAAAAAAAAAAAAAAAAAAAAAAAAAAAAAAAAAAAAAAAAAAAAAAAAAAAAAAAAAAAAAAAAAAAAAAAAAAAAAAAAAAAAAAAAAAAAAAAAAAAAAAAAAAAAAAAAAAAAAAAAAAAAAAAAAAAAAAAAAAAAAAAAAAAAAAAAAAAAAAAAAAAAAAAAAAAAAAAAAAAAAAAAAAAAAAAAAAAAAAAAAAAAAAAAAAAAAAAAAAAAAAAAAAAAAAAAAAAAAAAAAAAAAAAAAAAAAAAAAAAAAAAAAAAAAAAAAAAAAAAAAAAAAAAAAAAAAAAAAAAAAAAAAAAAAAAAAAAAAAAAAAAAAAAAAAAAAAAAAAAAAAAAAAAAAAAAAAAAAAAAAAAAAAAAAAAAAAAAAAAAAAAAAAAAAAAAAAAAAAAAAAAAAAAAAAAAAAAAAAAAAAAAAAAAAAAAAAAAAAAAAAAAAAAAAAAAAAAAAAAAAAAAAAAAAAAAAAAAAAAAAAAAAAAAAAAAAAAAAAAAAAAAAAAAAAAAAAAAAAAAAAAAAAAAAAAAAAAAAAAAAAAAAAAAAAAAAAAAAAAAAAAAAAAAAAAAAAAAAAAAAAAAAAAAAAAAAAAAAAAAAAAAAAAAAAAAAAAAAAAAAAAAAAAAAAAAAAAAAAAAAAAAAAAAAAAAAAAAAAAAAAAAAAAAAAAAAAAAAAAAAAAAAAAAAAAAAAAAAAAAAAAAAAAAAAAAAAAAAAAAAAAAAAAAAAAAAAAAAAAAAAAAAAAAAAAAAAAAAAAAAAAAAAAAAAAAAAAAAAAAAAAAAAAAAAAAAAAAAAAAAAAAAAAAAAAAAAAAAAAAAAAAAAAAAAAAAAAAAAAAAAAAAAAAAAAAAAAAAAAAAAAAAAAAAAAAAAAAAAAAAAAAAAAAAAAAAAAAAAAAAAAAAAAAAAAAAAAAAAAAAAAAAAAAAAAAAAAAAAAAAAAAAAAAAAAAAAAAAAAAAAAAAAAAAAAAAAAAAAAAAAAAAAAAAAAAAAAAAAAAAAAAAAAAAAAAAAAAAAAAAAAAAAAAAAAAAAAAAAAAAAAAAAAAAAAAAAAAAAAAAAAAAAAAAAAAAAAAAAAAAAAAAAAAAAAAAAAAAAAAAAAAAAAAAAAAAAAAAAAAAAAAAAAAAAAAAAAAAAAAAAAAAAAAAAAAAAAAAAAAAAAAAAAAAAAAAAAAAAAAAAAAAAAAAAAAAAAAAAAAAAAAAAAAAAAAAAAAAAAAAAAAAAAAAAAAAAAAAAAAAAAAAAAAAAAAAAAAAAAAAAAAAAAAAAAAAAAAAAAAAAAAAAAAAAAAAAAAAAAAAAAAAAAAAAAAAAAAAAAAAAAAAAAAAAAAAAAAAAAAAAAAAPZYQF9tp0byrS85sd139LhP+DEpyfs4AOA9qCwLKo4O6gMrDc8uxPw/uGdSjqn846VTXXKHa5yAI3aqRJZeOKEneFU=</c2pa:manifest></metadata><g fill="#170F44" fill-rule="evenodd"><path d="M259.89,13.42c-.29,2.64-1.08,10.48-1.76,15.37l-3.43.29c-.39-4.41-.88-7.54-1.96-9.1-1.27-1.76-3.13-2.45-9.4-2.45h-5.09c-3.43,0-4.11.78-4.7,4.11l-4.01,20.95h8.32c8.42,0,8.81-.98,11.65-7.24h3.43l-3.92,20.07h-3.52c-.1-7.44-.49-8.13-8.71-8.13h-8.22l-3.23,17.23c-1.47,7.64-.59,8.52,7.93,9.11l-.78,3.33h-30.49l.68-3.49c6.76-.59,8.56-1.5,10.03-8.94l7.44-38.48c1.47-7.93.98-8.71-6.56-9.3l.78-3.33h45.53,0Z"></path> <path d="M315.6,13.42c-.29,2.64-1.08,10.48-1.66,15.37l-3.52.29c-.29-4.11-.69-7.34-2.06-9.1-1.08-1.76-3.03-2.45-8.52-2.45h-4.8c-3.72,0-4.21.49-4.9,4.11l-3.82,19.68h6.56c8.42,0,8.52-.59,11.36-7.24h3.62l-4.01,20.17h-3.53c.1-7.54.1-8.13-8.13-8.13h-6.76l-3.13,16.55c-.78,4.31-.78,6.85.2,8.13,1.08,1.57,3.62,2.06,8.22,2.06,5.97,0,9.1-.98,11.45-3.23,2.25-2.06,4.7-5.19,7.05-9.4l3.33,1.27c-1.18,3.52-4.41,12.04-5.97,15.47h-47.68l.68-3.33c7.44-.59,8.13-1.27,9.59-9.11l7.54-38.67c1.37-7.54.78-8.52-6.76-9.11l.88-3.33h44.77Z"></path> <path d="M370.72,60.61c-1.27,3.43-4.7,12.83-6.27,16.35h-46.21l.68-3.23c7.83-.69,8.52-1.57,10.08-9.3l7.54-39.06c1.37-7.05.78-8.03-6.85-8.62l.68-3.33h29.27l-.78,3.33c-7.64.59-8.32,1.57-9.69,8.62l-7.34,38.48c-.59,3.72-.68,5.58.29,7.05,1.08,1.37,3.62,1.96,7.64,1.96,4.6,0,7.83-.88,10.28-3.23,2.15-2.06,4.7-5.48,7.15-10.18l3.52,1.18v-.02h.01Z"></path> <path d="M415.96,16.75c-7.15.59-7.73,1.47-9.3,9.3l-7.34,38.28c-1.57,7.73-.88,8.71,6.85,9.3l-.68,3.33h-28.98l.69-3.33c6.95-.59,7.73-1.57,9.3-9.3l7.54-38.28c1.47-7.83.88-8.71-7.05-9.3l.78-3.33h28.98l-.78,3.33h-.01Z"></path> <path d="M482.05,16.75c-6.27.69-7.73,1.47-11.85,5.78-4.01,4.11-9.11,10.18-15.37,17.72l10.48,24.38c3.23,7.64,4.31,8.22,11.06,9.01l-.78,3.33h-28.69l.78-3.33,2.25-.39c3.72-.59,4.11-1.57,2.94-4.8-.98-2.84-2.15-6.07-7.15-18.01-5.78,7.44-9.69,12.73-12.73,17.43-2.35,3.53-2.06,4.5,1.76,5.39l1.86.39-.88,3.33h-22.71l.88-3.33c5.48-.59,7.83-1.76,11.16-5.19,3.33-3.33,11.75-13.32,18.8-22.13l-9.3-22.32c-2.35-5.78-3.62-6.56-9.79-7.24l.88-3.33h26.14l-.78,3.33-2.35.49c-2.45.59-2.74,1.27-2.15,3.04,1.27,3.52,3.62,9.2,6.56,15.86,4.21-5.19,8.32-10.67,11.06-14.69,1.86-2.84,1.08-3.82-1.96-4.31l-2.35-.39.78-3.33h22.22l-.78,3.33v-.02h.01Z"></path> <path d="M261.91,151.66c0,1.72.38,2.8.84,4.79h-25.07c-.6-1.28-.84-3.04-.84-4.97v-12.11c0-3.22-1.56-5.25-5.19-5.25h-4.41v22.34h-25.07v-63.6h36.25c13.04,0,24.49,3.6,24.49,17.3,0,9.02-7.06,13.57-13.74,13.57h-3.14v3.17h3.18c6.89,0,12.69,4.33,12.69,11.79v12.96h.01ZM236.75,115.13c0-3.29-1.57-5.14-4.33-5.14h-5.17v10.27h5.17c2.76,0,4.33-1.85,4.33-5.14h0Z"></path> <path d="M294.94,110.78v6.09h24.54v13.36h-24.54v7.2h26.75v19.03h-51.82v-63.6h51.82v17.92s-26.75,0-26.75,0Z"></path> <path d="M329.29,156.45v-63.6h25.07v63.6h-25.07Z"></path> <path d="M422.89,124.57c0,27.53-13.95,31.88-24.91,31.88h-35.44v-63.6h36.03c20.52,0,24.32,15.16,24.32,31.71h0ZM397.06,124.65c0-6.95-.72-10.89-5.68-10.89h-3.78v20.17h3.89c3.1,0,5.56-2.07,5.56-9.28h0Z"></path> <path d="M429.59,156.45v-63.6h25.07v63.6h-25.07Z"></path> <path d="M529.3,92.86v63.6h-27.83l-14.61-30.06h-3.21l1.73,4.99c1.48,3.59,2.37,6.62,2.37,9.85v15.22h-24.9v-63.6h26.48l16.34,29.46h3.37l-2.75-5.6c-1.06-2.13-1.89-4.17-1.89-7.54v-16.32h24.9,0Z"></path> <path d="M599.34,120.67v35.77h-24.67c2.5-5.43,8.09-11.89,8.09-11.89l-3.01-2.56-3.66,4.88c-3.59,4.51-8.38,10.76-18.02,10.76-14.46,0-21.99-9.89-21.99-33.07,0-26.75,11.77-33.07,31.95-33.07s30.26,5.55,30.94,25.88h-25.26c-.37-2.81-2.3-3.47-5.24-3.47-3.79,0-6.56,2.31-6.56,10.67s2.5,10.67,6.29,10.67c2.97,0,5.27-.32,5.62-4.14h-6.52v-10.42h32.05-.01Z"></path> <path d="M631.92,110.78v6.09h24.54v13.36h-24.54v7.2h26.75v19.03h-51.82v-63.6h51.82v17.92s-26.75,0-26.75,0Z"></path> <path d="M726,151.66c0,1.72.38,2.8.84,4.79h-25.07c-.6-1.28-.84-3.04-.84-4.97v-12.11c0-3.22-1.56-5.25-5.19-5.25h-4.41v22.34h-25.07v-63.6h36.25c13.04,0,24.49,3.6,24.49,17.3,0,9.02-7.06,13.57-13.74,13.57h-3.14v3.17h3.18c6.89,0,12.69,4.33,12.69,11.79v12.96h.01ZM700.85,115.13c0-3.29-1.57-5.14-4.33-5.14h-5.17v10.27h5.17c2.76,0,4.33-1.85,4.33-5.14h0Z"></path> <g> <path d="M109.22,67.07h-5.2v10.32h5.2c2.77,0,4.35-1.86,4.35-5.16s-1.58-5.16-4.35-5.16Z"></path> <path d="M87.65,2.65C42,2.65,5,39.65,5,85.29s37,82.64,82.64,82.64,82.64-37,82.64-82.64S133.29,2.65,87.65,2.65ZM73.96,92.41c.56-7.26-.38-8.16-8.74-8.16h-8.25l-3.14,17c-1.38,7.27.48,8.3,8.21,8.3l-.94,4.18h-30.89l.8-4.16c7.09-.09,8.56-1.34,9.94-8.32l7.37-38.72c1.47-7.47,1.11-8.03-6.66-8.62l.76-4.05h47.89l-3.37,17.77-4.11-.06c.7-5.64-.52-9.06-1.6-10.53-1.28-1.87-2.95-2.46-9.14-2.46h-5.31c-3.54,0-4.23.78-4.82,4.32l-3.83,20.04h8.25c8.35,0,8.84-.88,11.5-7.17h4.13l-3.93,20.64h-4.14s.02,0,.02,0ZM126.09,84.06c6.93,0,12.75,4.35,12.75,11.84v13.02c0,1.73.38,2.81.84,4.82h-25.18c-.6-1.29-.84-3.05-.84-4.99v-12.17c0-3.23-1.57-5.27-5.21-5.27h-4.43v22.44h-25.9l8.03-41.95,4.1-.02,4.2-21.92h20.8c13.1,0,24.6,3.62,24.6,17.38,0,9.06-7.09,13.64-13.8,13.64h-3.15v3.19h3.19Z"></path> </g></g></svg>